# xmcd
#
# Track frame offsets: 
#        300
#        14659
#        30559
#        45297
#        65545
#        85336
#        102599
#        116879
#        134100
#        150837
#        169487
#        188162
#        206682
#        226782
#        243371
#        264777
#        285027
#
# Disc length: 4049 seconds
#
# Revision: 0
# Processed by: cddbd v1.5.1PL2 Copyright (c) Steve Scherf et al.
# Submitted via: ExactAudioCopy v0.95a5
#
DISCID=e40fcd11
DTITLE=群星 - 许氏精选（一）
DYEAR=2005
DGENRE=Pop
TTITLE0=精灵
TTITLE1=简简单单
TTITLE2=绿光
TTITLE3=蒙娜丽莎的眼泪
TTITLE4=欧若拉
TTITLE5=千年之恋
TTITLE6=未知的精彩
TTITLE7=一千年以后
TTITLE8=奔
TTITLE9=刺鸟
TTITLE10=编号89757
TTITLE11=童话
TTITLE12=第二天堂
TTITLE13=酸酸甜甜就是我
TTITLE14=不得不爱
TTITLE15=江南
TTITLE16=每天想你一遍
EXTD=
EXTT0=
EXTT1=
EXTT2=
EXTT3=
EXTT4=
EXTT5=
EXTT6=
EXTT7=
EXTT8=
EXTT9=
EXTT10=
EXTT11=
EXTT12=
EXTT13=
EXTT14=
EXTT15=
EXTT16=
PLAYORDER=
